<?xml version="1.0" standalone="no"?>
<!DOCTYPE svg PUBLIC "-//W3C//DTD SVG 1.1//EN" "http://www.w3.org/Graphics/SVG/1.1/DTD/svg11.dtd" >
<svg xmlns="http://www.w3.org/2000/svg">
<metadata>Generated by IcoMoon</metadata>
<defs>
<font id="icomoon" horiz-adv-x="512">
<font-face units-per-em="512" ascent="480" descent="-32" />
<missing-glyph horiz-adv-x="512" />
<glyph unicode="&#x20;" d="" horiz-adv-x="256" />
<glyph unicode="&#xe070;" d="M384 416c-49.179 0-94.030-18.498-128-48.905-33.969 30.407-78.821 48.905-128 48.905s-94.031-18.498-128-48.904v-286.172c0.342-0.306 0.676-0.62 1.020-0.924 8.209-7.244 17.040-13.798 26.406-19.569 9.43 7.631 19.739 14.216 30.761 19.569 21.098 10.248 44.783 16 69.813 16s48.716-5.752 69.813-16c11.021-5.354 21.331-11.938 30.761-19.569 1.842-1.491 3.65-3.022 5.424-4.592 8.108-7.178 15.488-15.159 22.002-23.83 6.515 8.671 13.894 16.652 22.002 23.83 1.773 1.569 3.581 3.101 5.424 4.592 9.43 7.631 19.739 14.216 30.761 19.569 21.098 10.248 44.783 16 69.813 16s48.716-5.752 69.813-16c11.021-5.354 21.331-11.938 30.761-19.569 9.366 5.771 18.196 12.325 26.405 19.569 0.344 0.304 0.679 0.618 1.021 0.924v286.172c-33.969 30.406-78.821 48.904-128 48.904zM128 128c-34.976 0-67.758-9.365-96-25.705v249.712c26.741 20.088 59.98 31.993 96 31.993 36.025 0 69.258-11.919 96-32.013v-249.692c-28.242 16.34-61.024 25.705-96 25.705zM384 128c-34.976 0-67.758-9.365-96-25.705v249.692c26.742 20.094 59.976 32.013 96 32.013 36.021 0 69.259-11.906 96-31.994v-249.712c-28.242 16.341-61.024 25.706-96 25.706z" />
<glyph unicode="&#xe0ba;" d="M496 448h-112c-26.4 0-63.273-15.273-81.941-33.941l-188.118-188.118c-18.667-18.667-18.667-49.214 0-67.882l140.118-140.117c18.667-18.668 49.214-18.668 67.882 0l188.117 188.117c18.669 18.668 33.942 55.541 33.942 81.941v112c0 26.4-21.6 48-48 48zM432 288c-26.51 0-48 21.49-48 48s21.49 48 48 48 48-21.49 48-48-21.49-48-48-48zM43.313 180.687l171.189-171.189c-18.132-9.58-41.231-6.769-56.443 8.444l-140.118 140.117c-18.667 18.668-18.667 49.215 0 67.882l188.118 188.118c18.668 18.668 55.541 33.941 81.941 33.941l-244.687-244.686c-6.222-6.223-6.222-16.404 0-22.627z" horiz-adv-x="544" />
<glyph unicode="&#xe0c5;" d="M488.791 382.769c-16.992 4.854-34.705-4.985-39.56-21.978l-2.511-8.791h-298.471l-4.496 35.969c-2.002 16.014-15.615 28.031-31.753 28.031h-80c-17.673 0-32-14.327-32-32s14.327-32 32-32h51.751l28.496-227.969c2.002-16.013 15.615-28.031 31.753-28.031h272c14.287 0 26.844 9.472 30.769 23.209l64 224c4.855 16.993-4.985 34.705-21.978 39.56zM391.862 160h-219.613l-0.5 4h221.256l-1.143-4zM395.291 172h-224.542l-1 8h227.827l-2.285-8zM399.862 188h-231.113l-1 8h234.399l-2.286-8zM404.434 204h-237.685l-1 8h240.971l-2.286-8zM409.005 220h-244.256l-1 8h247.542l-2.286-8zM413.577 236h-250.828l-1 8h254.113l-2.285-8zM418.148 252h-257.399l-1 8h260.685l-2.286-8zM422.72 268h-263.971l-1 8h267.256l-2.285-8zM427.291 284h-270.542l-1 8h273.828l-2.286-8zM431.862 300h-277.113l-1 8h280.399l-2.286-8zM152.749 316l-0.5 4h285.327l-1.143-4h-283.684zM128 16c0 26.51 21.49 48 48 48s48-21.49 48-48c0-26.51-21.49-48-48-48s-48 21.49-48 48zM320 16c0 26.51 21.49 48 48 48s48-21.49 48-48c0-26.51-21.49-48-48-48s-48 21.49-48 48z" />
<glyph unicode="&#xe115;" d="M416 384h-32v-64h-96v64h-96v-64h-96v64h-32c-17.6 0-32-14.4-32-32v-352c0-17.6 14.4-32 32-32h352c17.6 0 32 14.4 32 32v352c0 17.6-14.4 32-32 32zM128 0h-63.943c-0.020 0.017-0.041 0.038-0.057 0.058v63.942h64v-64zM128 96h-64v64h64v-64zM128 192h-64v64h64v-64zM224 0h-64v64h64v-64zM224 96h-64v64h64v-64zM224 192h-64v64h64v-64zM320 0h-64v64h64v-64zM320 96h-64v64h64v-64zM320 192h-64v64h64v-64zM416 0.058c-0.017-0.020-0.038-0.041-0.058-0.058h-63.942v64h64v-63.942zM416 96h-64v64h64v-64zM416 192h-64v64h64v-64zM160 416c0 8.836-7.164 16-16 16s-16-7.164-16-16v-64h32v64zM352 416c0 8.836-7.164 16-16 16s-16-7.164-16-16v-64h32v64z" />
<glyph unicode="&#xe167;" d="M464 448h-416c-26.4 0-48-21.6-48-48v-256c0-26.4 21.6-48 48-48h80v-128l153.6 128h182.4c26.4 0 48 21.6 48 48v256c0 26.4-21.6 48-48 48zM448 160h-189.571l-98.429-87.357v87.357h-96v224h384v-224z" />
<glyph unicode="&#xe1b7;" d="M449.077 10.754l-114.54 168.305c65.459 51.835 83.963 145.677 39.835 219.126-47.927 79.774-151.813 105.672-231.579 57.755-79.765-47.933-105.662-151.816-57.739-231.583 43.213-71.942 131.962-100.047 207.479-69.717l95.143-180.783c2.95-5.611 9.802-7.523 15.229-4.273l42.784 25.72c5.437 3.263 6.964 10.214 3.388 15.45zM288.781 212.968c-54.211-32.563-124.808-14.959-157.375 39.253-32.565 54.197-14.952 124.794 39.253 157.36 54.189 32.57 124.787 14.961 157.351-39.245 32.569-54.198 14.968-124.811-39.229-157.368z" />
<glyph unicode="&#xe24e;" d="M191.076 80.777c11.877-12.929 31.529-17.334 67.748-16.738 32.653 0.545 50.942 3.373 62.1 13.645v-37.524c-19.951-6.486-41.892-10.086-64.921-10.086-23.031 0-44.977 3.6-64.927 10.088v40.615zM191.753 14.944c28.824-8.815 41.975-9.291 64.25-9.291 22.272 0 35.424 0.476 64.25 9.291-2.508-13.705-13.301-46.944-64.25-46.944s-61.743 33.239-64.25 46.944zM256.003 442c-64.327 0-116.661-51.382-116.661-114.54 0-31.407 21.899-70.389 48.356-114.396 10.558-17.561 15.621-34.915 19.689-48.859 3.154-10.813 6.133-21.026 10.007-24.645 1.801-1.684 9.84-7.177 37.633-7.177 1.065 0 2.145 0.007 3.246 0.024 30.817 0.453 38.157 6.045 38.892 6.681 2.364 2.045 4.922 11.265 7.18 19.4 3.625 13.064 8.137 29.324 18.116 46.788 19.991 34.971 50.198 87.81 50.198 122.185 0 30.474-12.074 59.166-33.999 80.79-22.065 21.764-51.42 33.749-82.657 33.749zM256.003 480v0c85.368 0 154.657-68.338 154.656-152.54 0-42.101-27.916-93.303-55.205-141.039-27.279-47.737-3.012-90.635-96.629-92.011-1.288-0.018-2.552-0.028-3.798-0.028-93.283 0-71.575 51.994-99.897 99.102-28.699 47.737-53.788 91.874-53.788 133.976 0 84.201 69.287 152.54 154.661 152.54z" />
<glyph unicode="&#xe2de;" d="M256 70.5c-74.095 0-140.032 36.302-172.742 57.941-21.921 14.502-42.094 31.101-56.803 46.74-17.801 18.927-26.455 34.895-26.455 48.818 0 13.924 8.654 29.892 26.456 48.819 14.709 15.639 34.882 32.238 56.803 46.74 32.709 21.639 98.647 57.942 172.741 57.942s140.031-36.303 172.741-57.942c21.92-14.502 42.093-31.101 56.803-46.74 17.801-18.926 26.455-34.894 26.456-48.815-0.001-13.927-8.655-29.895-26.456-48.822-14.709-15.639-34.882-32.237-56.803-46.739-32.71-21.64-98.646-57.942-172.741-57.942zM48.817 224c5.511-10.143 28.255-34.967 67.025-59.47 27.2-17.19 81.577-46.029 140.158-46.029s112.959 28.839 140.158 46.030c38.77 24.503 61.514 49.326 67.024 59.469-5.512 10.143-28.255 34.966-67.025 59.47-27.199 17.191-81.576 46.030-140.157 46.030s-112.958-28.839-140.157-46.030c-38.77-24.503-61.515-49.327-67.026-59.47zM192 224c0 35.346 28.654 64 64 64s64-28.654 64-64c0-35.346-28.654-64-64-64s-64 28.654-64 64z" />
<glyph unicode="&#xe36b;" d="M507.331 68.67c-0.002 0.002-0.004 0.004-0.006 0.005l-155.322 155.325 155.322 155.325c0.002 0.002 0.004 0.003 0.006 0.005 1.672 1.673 2.881 3.627 3.656 5.708 2.123 5.688 0.912 12.341-3.662 16.915l-73.373 73.373c-4.574 4.573-11.225 5.783-16.914 3.66-2.080-0.775-4.035-1.984-5.709-3.655 0-0.002-0.002-0.003-0.004-0.005l-155.324-155.326-155.324 155.325c-0.002 0.002-0.003 0.003-0.005 0.005-1.673 1.671-3.627 2.88-5.707 3.655-5.69 2.124-12.341 0.913-16.915-3.66l-73.374-73.374c-4.574-4.574-5.784-11.226-3.661-16.914 0.776-2.080 1.985-4.036 3.656-5.708 0.002-0.001 0.003-0.003 0.005-0.005l155.325-155.324-155.325-155.326c-0.001-0.002-0.003-0.003-0.004-0.005-1.671-1.673-2.88-3.627-3.657-5.707-2.124-5.688-0.913-12.341 3.661-16.915l73.374-73.373c4.575-4.574 11.226-5.784 16.915-3.661 2.080 0.776 4.035 1.985 5.708 3.656 0.001 0.002 0.003 0.003 0.005 0.005l155.324 155.325 155.324-155.325c0.002-0.001 0.004-0.003 0.006-0.004 1.674-1.672 3.627-2.881 5.707-3.657 5.689-2.123 12.342-0.913 16.914 3.661l73.373 73.374c4.574 4.574 5.785 11.227 3.662 16.915-0.776 2.080-1.985 4.034-3.657 5.707z" />
<glyph unicode="&#xe600;" d="M22.187 457.803c-34.667-34.667-22.293-107.947 24.96-190.080-2.987-14.080-4.48-28.683-4.48-43.723 0-117.867 95.467-213.333 213.333-213.333 15.040 0 29.643 1.504 43.733 4.48 82.133-47.253 155.413-59.627 190.080-24.96s22.293 107.936-24.96 190.080c2.976 14.069 4.48 28.693 4.48 43.733 0 117.867-95.467 213.333-213.333 213.333-15.040 0-29.653-1.504-43.733-4.48-82.134 47.243-155.414 59.616-190.080 24.95zM447.573 25.707c-128.96-41.291-453.557 327.882-387.413 394.122 15.36 15.264 47.787 8.651 88-11.733-17.813-10.453-33.813-23.36-47.776-38.293 45.003-112.854 190.176-256.95 303.349-299.723 14.613 13.963 27.211 30.080 37.333 47.776 16.854-36.587 21.121-69.109 6.507-92.149z" />
<glyph unicode="&#xe601;" d="M426.666 448h-362.666c-35.285 0-64-28.715-64-64v-256c0-35.286 42.666-42.666 64-42.666v-128l192 128h170.667c35.286 0 64 28.714 64 64v234.667c0 35.286-28.714 64-64 64zM448 149.333c0-11.755-9.579-21.334-21.334-21.334h-192l-128-106.666v106.666h-42.666c-11.755 0-21.334 9.579-21.334 21.334v234.667c0 11.755 9.578 21.334 21.334 21.334h362.666c11.755 0 21.334-9.579 21.334-21.334v-234.667z" />
<glyph unicode="&#xe602;" d="M352 160c-32-32-32-64-64-64s-64 32-96 64-64 64-64 96 32 32 64 64-64 128-96 128-96-96-96-96c0-64 65.75-193.75 128-256s192-128 256-128c0 0 96 64 96 96s-96 128-128 96z" />
<glyph unicode="&#xe603;" d="M432 416l-240-240-112 112-80-80 192-192 320 320z" />
<glyph unicode="&#xe604;" d="M480 480h-448c-17.672 0-32-14.312-32-32v-352c0-17.688 14.328-32 32-32h192v-32h-96c-17.672 0-32-14.312-32-32v-32h320v32c0 17.688-14.328 32-32 32h-96v32h192c17.672 0 32 14.312 32 32v352c0 17.688-14.328 32-32 32zM448 128h-384v288h384v-288z" />
<glyph unicode="&#xe605;" d="M379.392 116.531c-63.104 22.989-83.277 42.394-83.277 83.942 0 24.935 19.277 16.793 27.725 62.464 3.507 18.944 20.531 0.307 23.808 43.545 0 17.229-9.293 21.529-9.293 21.529s4.736 25.523 6.579 45.133c2.253 24.474-14.131 87.654-101.734 87.654-87.578 0-104.013-63.181-101.709-87.654 1.843-19.61 6.579-45.133 6.579-45.133s-9.319-4.275-9.319-21.529c3.251-43.238 20.275-24.601 23.782-43.545 8.474-45.671 27.75-37.53 27.75-62.464 0-41.549-20.173-60.954-83.277-83.942-63.334-23.040-104.448-46.567-104.448-62.618 0-16.026 0-53.888 0-53.888h481.28c0 0 0 37.863 0 53.888s-41.139 39.552-104.448 62.618z" />
<glyph unicode="&#xe606;" d="M460.8 435.2h-409.6c-28.16 0-51.2-23.040-51.2-51.2v-307.2c0-28.16 23.040-51.2 51.2-51.2h409.6c28.185 0 51.2 23.040 51.2 51.2v307.2c0 28.16-23.014 51.2-51.2 51.2zM460.8 76.8h-409.6v307.2h409.6v-307.2zM230.4 176.64h-128v-46.080h128v46.080zM230.4 253.44h-128v-46.080h128v46.080zM230.4 330.24h-128v-46.080h128v46.080zM407.040 166.4c0 0-43.52 11.366-43.52 33.741 0 21.299 28.185 30.259 28.185 73.779 0 35.328-10.752 56.32-46.106 56.32s-46.080-20.966-46.080-56.32c0-43.52 28.16-52.48 28.16-73.779 0-22.375-43.495-33.741-43.495-33.741-2.586 0-2.586-35.84-2.586-35.84h128c0 0 0 35.84-2.56 35.84z" />
<glyph unicode="&#xe607;" d="M256 435.2c-70.707 0-128-57.319-128-128 0-122.215 128-281.6 128-281.6s128 159.386 128 281.6c0 70.681-57.293 128-128 128zM256 236.544c-38.169 0-69.12 30.951-69.12 69.12s30.951 69.12 69.12 69.12 69.12-30.95 69.12-69.12-30.95-69.12-69.12-69.12z" />
<glyph unicode="&#xe608;" d="M449.152 90.419l-96.743 96.743c14.592 23.987 22.989 52.096 22.989 82.227 0 87.45-75.801 163.251-163.277 163.251-87.45 0-158.362-70.912-158.362-158.361 0-87.475 75.776-163.277 163.251-163.277 29.082 0 56.32 7.885 79.744 21.581l97.255-97.28c9.549-9.523 24.96-9.523 34.457 0l24.141 24.115c9.498 9.523 6.041 21.504-3.456 31.002zM102.502 274.279c0 60.544 49.075 109.645 109.619 109.645 60.569 0 114.535-53.965 114.535-114.534s-49.075-109.645-109.645-109.645-114.509 53.965-114.509 114.535z" />
<glyph unicode="&#xe609;" d="M396.365 267.187c-10.419-10.701-120.192-115.277-120.192-115.277-5.581-5.709-12.877-8.55-20.173-8.55-7.322 0-14.618 2.841-20.173 8.55 0 0-109.773 104.576-120.218 115.277-10.419 10.701-11.136 29.926 0 41.37 11.162 11.417 26.701 12.313 40.345 0l100.045-95.949 100.019 95.923c13.671 12.314 29.235 11.418 40.346 0 11.161-11.417 10.471-30.669 0-41.344z" />
<glyph unicode="&#xe60a;" d="M396.365 193.613c-10.419 10.701-120.192 115.251-120.192 115.251-5.581 5.709-12.877 8.576-20.173 8.576-7.322 0-14.618-2.867-20.173-8.576 0 0-109.773-104.551-120.218-115.251-10.419-10.701-11.136-29.952 0-41.37 11.162-11.392 26.701-12.313 40.345 0l100.045 95.923 100.019-95.923c13.671-12.313 29.235-11.392 40.346 0 11.161 11.443 10.471 30.695 0 41.37z" />
<glyph unicode="&#xe60b;" d="M445.502 299.97c-1.621 64.349-54.229 116.030-118.931 116.030-37.896 0-71.633-17.747-93.427-45.366-12.221 15.799-31.345 25.98-52.854 25.98-36.905 0-66.821-29.937-66.821-66.861 0-3.218 0.24-6.38 0.682-9.477-5.611 1.012-11.383 1.569-17.285 1.569-53.499 0.001-96.866-43.393-96.866-96.921 0-53.531 43.367-96.924 96.865-96.924h49.88l109.255-109.255 109.255 109.255 59.741 0.006c48.069 0.092 87.004 39.106 87.004 87.223 0 41.045-28.339 75.45-66.498 84.741zM256 64l-96 96h64v96h64v-96h64l-96-96z" />
<glyph unicode="&#xe60c;" d="M292.787 370.791c-10.701-10.445-115.251-120.218-115.251-120.218-5.709-5.581-8.55-12.877-8.55-20.173s2.841-14.592 8.55-20.173c0 0 104.551-109.773 115.251-120.192 10.701-10.445 29.952-11.161 41.37 0 11.392 11.136 12.288 26.675-0.026 40.32l-95.923 100.045 95.923 100.045c12.313 13.67 11.418 29.209 0.026 40.345-11.443 11.136-30.695 10.445-41.37 0z" />
<glyph unicode="&#xe60d;" d="M219.213 370.791c10.701-10.445 115.251-120.218 115.251-120.218 5.735-5.581 8.576-12.877 8.576-20.173s-2.841-14.592-8.576-20.173c0 0-104.55-109.773-115.251-120.192-10.701-10.445-29.927-11.161-41.369 0-11.417 11.136-12.314 26.675 0 40.32l95.949 100.045-95.923 100.045c-12.314 13.67-11.417 29.209 0 40.345s30.669 10.445 41.344 0z" />
<glyph unicode="&#xe60e;" d="M482.299-4.808v258.775h15.058v31.739h-154.624v133.821h18.473l-16.42 39.511h-36.941v20.962h-242.186v-20.962h-36.941l-16.42-39.511h18.473v-424.336h-17.398v-27.193h486.329v27.192h-17.403zM125.179 30.695h-41.047v82.094h41.047v-82.094zM125.179 153.836h-41.047v82.099h41.047v-82.099zM125.179 276.982h-41.047v82.094h41.047v-82.094zM207.278 30.695h-41.047v82.094h41.047v-82.094zM207.278 153.836h-41.047v82.099h41.047v-82.099zM207.278 276.982h-41.047v82.094h41.047v-82.094zM289.372 30.695h-41.047v82.094h41.047v-82.094zM289.372 153.836h-41.047v82.099h41.047v-82.099zM289.372 276.982h-41.047v82.094h41.047v-82.094zM371.466 30.695h-34.539v34.534h34.539v-34.534zM371.466 98.068h-34.539v34.539h34.539v-34.539zM371.466 165.442h-34.539v34.539h34.539v-34.539zM438.846 30.695h-34.539v34.534h34.539v-34.534zM438.846 98.068h-34.539v34.539h34.539v-34.539zM438.846 165.442h-34.539v34.539h34.539v-34.539z" />
<glyph unicode="&#xe60f;" d="M572.236 208.941v-87.83l-189.334-113.13-194.666 113.13v87.831l195.817-96.926zM383.82 135.808l366.118 182.55-366.125 154.526-376.35-154.526 82.138-39.846c-1.868-47.308-7.002-139.565-12.966-169.397-4.932-24.674-28.8-59.836-73.502-104.508-1.716-1.724-3.893-4.269-2.914-6.618 1.024-2.477 4.653-2.477 5.851-2.477 11.55 0 43.031 10.661 59.392 21.557 2.394 1.604 4.578 2.409 6.49 2.409 7.175 0 11.347-11.813 15.383-23.243 3.832-10.85 7.447-21.105 14.073-24.418 1.002-0.497 2.033-0.753 3.072-0.753 2.311 0 4.495 1.228 6.633 3.652 12.198 13.817 21.421 68.894 15.127 119.213-5.737 45.899-2.853 124.13 1.573 166.038l256.007-124.16zM378.91 395.934c16.889 0 30.637-13.748 30.637-30.644s-13.748-30.637-30.637-30.637-30.63 13.741-30.63 30.637c0 16.896 13.741 30.644 30.63 30.644z" horiz-adv-x="753" />
<glyph unicode="&#xe610;" d="M308.905 130.053v293.058c0 31.37-25.518 56.889-56.888 56.889-31.365 0-56.888-25.518-56.888-56.889v-293.053c-21.248-17.014-34.135-42.993-34.135-71.035 0-50.186 40.832-91.018 91.018-91.018 50.191-0.005 91.028 40.832 91.028 91.013 0 28.042-12.892 54.021-34.135 71.035zM229.263 232.381h22.754v22.754h-22.754v45.512h22.754v22.753h-22.754v45.512h22.754v22.754h-22.754v31.447c0 12.57 10.189 22.753 22.754 22.753 12.57 0 22.759-10.183 22.759-22.753v-210.488h-45.512v19.758z" />
<glyph unicode="&#xe611;" d="M556.542 304.355l-50.173 129.561c-9.384 24.802-29.889 45.906-68.695 46.084h-263.675c-38.629-0.178-59.134-21.283-68.689-46.084l-50.185-129.561c-19.924-2.571-55.186-25.983-55.124-70.335v-164.964h48.961v-52.658c-0.123-64.918 91.746-64.147 91.722 0v52.658h330.308v-52.658c0.202-64.147 92.070-64.918 92.132 0v52.658h48.967v164.964c-0.153 44.352-35.44 67.764-55.547 70.335zM96.263 168.606c-23.468-0.067-42.467 19.507-42.369 43.581-0.098 24.238 18.901 43.832 42.369 43.63 23.394 0.202 42.393-19.391 42.362-43.63 0.030-24.074-18.975-43.642-42.362-43.581zM306.045 305.573h-198.678l37.839 102.023c4.566 14.482 11.654 24.844 28.395 25.096h264.9c16.483-0.251 23.59-10.608 28.377-25.096l37.846-102.023h-198.678zM515.832 168.606c-23.632-0.067-42.644 19.507-42.773 43.581 0.128 24.238 19.14 43.832 42.773 43.63 23.229 0.202 42.222-19.391 42.369-43.63-0.147-24.074-19.14-43.642-42.369-43.581z" horiz-adv-x="612" />
<glyph unicode="&#xe612;" d="M386.091 470.666v-246.666l-167.26 111.506v-111.506l-167.26 111.506v-358.173h111.506v111.506h55.754v-111.506h241.597v493.332h-74.337zM144.494 133.33h-37.168v37.168h37.168v-37.168zM200.246 133.33h-37.168v37.168h37.168v-37.168zM256 133.33h-37.168v37.168h37.168v-37.168zM311.753 133.33h-37.168v37.168h37.168v-37.168z" />
<glyph unicode="&#xe613;" d="M481.649 345.344c0 0-149.238 0-163.010 0-3.789 9.134-14.95 16.108-23.409 20.265-0.358 22.139-17.767 40.1-39.219 40.1-21.535 0-38.963-17.961-39.239-40.1-8.519-4.147-19.62-11.131-23.409-20.265-13.804 0-163.062 0-163.062 0-13.465 0-24.515-11.417-24.515-25.364v-252.406c0-13.957 11.039-25.283 24.515-25.283h451.348c13.517 0 24.555 11.315 24.555 25.283v252.416c0.010 13.936-11.038 25.354-24.555 25.354zM256.010 377.058c2.816 0 5.519-1.137 7.557-3.205 1.997-2.058 3.092-4.905 3.092-7.844 0-6.103-4.741-11.038-10.649-11.038-5.959 0-10.711 4.935-10.711 11.038 0 6.134 4.751 11.049 10.711 11.049zM196.536 111.739h-134.646v158.72h134.646v-158.72zM189.297 307.149c0 3.799 7.68 6.851 17.152 6.851h98.642c9.502 0 17.203-3.052 17.203-6.851 0-3.779-7.7-6.871-17.203-6.871h-98.642c-9.472 0-17.152 3.082-17.152 6.871zM441.467 141.844h-152.146v4.915h152.146v-4.915zM441.467 188.662h-152.146v4.915h152.146v-4.915zM441.467 235.448h-152.146v4.885h152.146v-4.885zM180.45 141.425c2.447 4.536-2.161 15.8-4.72 20.245-5.386 9.502-37.734 20.777-37.734 20.777l-0.174 0.901c0.051 0.021 0.113 0.021 0.174 0.041l-0.891 4.956c3.738 2.622 7.454 7.445 9.113 16.456 1.29 2.14 1.403 3.861 1.208 5.223 0.297 2.898-1.208 4.628-1.208 4.628v7.711c-1.659 8.725-6.953 11.541-12.964 11.632 0 0-21.698 7.352-25.835-11.192v-1.065c-0.041-0.205-0.123-0.358-0.164-0.563v-6.37c-0.276-0.348-0.942-1.495-1.034-3.318-0.461-1.444-0.615-3.584 1.034-6.339 1.597-8.745 5.12-13.538 8.766-16.179l-0.594-6.543c0 0-25.334-11.52-30.945-16.702-5.202-4.741-9.636-18.903-5.745-24.863 26.695-13.261 68.27-17.961 101.714 0.563z" />
<glyph unicode="&#xe614;" d="M298.44 475.889h-271.058c-15.053 0-27.382-12.314-27.382-27.377v-449.029c0-15.043 12.329-27.377 27.382-27.377h271.058c15.068 0 27.382 12.329 27.382 27.377v449.029c0 15.063-12.313 27.377-27.382 27.377zM284.749 67.938h-243.681v366.884h243.681v-366.884zM400.394 330.501c-0.108 0.108-0.22 0.215-0.327 0.327l-27.106-27.1 0.226-0.22c31.831-32.087 31.683-84.014-0.236-115.922l27.106-27.115c46.894 46.889 47.089 122.911 0.338 170.030zM454.81 384.502c-0.179 0.185-0.348 0.353-0.538 0.537l-27.106-27.106 0.44-0.435c61.532-62.014 61.266-162.417-0.445-224.128l27.1-27.1c76.733 76.723 77.051 201.113 0.548 278.231z" />
<glyph unicode="&#xe615;" d="M0 480v-512h512v512h-512zM346.956 202.712h-50.655v-65.69h39.727v-26.224h-39.727v-101.433h-33.292v219.578h83.947v-26.23zM453.142 202.712h-50.649v-65.69h39.721v-26.224h-39.721v-101.433h-33.292v219.578h83.947v-26.23z" />
<glyph unicode="&#xe616;" d="M0 480v-512h512v512h-512zM452.889 202.712h-35.228v-193.348h-33.292v193.348h-35.352v26.224h103.872v-26.224z" />
<glyph unicode="&#xe617;" d="M293.543 194.171c-2.276 3.899-5.36 6.618-9.259 8.163-3.899 1.539-8.848 2.308-14.846 2.308h-8.483v-172.014h8.483c5.998 0 10.947 0.776 14.846 2.315s6.983 4.257 9.259 8.163c2.269 3.899 3.834 9.213 4.695 15.942 0.854 6.723 1.284 15.231 1.284 25.514v68.135c0 10.289-0.43 18.791-1.284 25.52-0.861 6.742-2.425 12.049-4.695 15.955zM0 480v-512h512v512h-512zM190.12 9.363h-33.292v219.578h33.292v-219.578zM334.365 87.267c0-12.681-1.050-23.44-3.149-32.262-2.099-8.829-4.949-16.118-8.548-21.862s-7.779-10.217-12.531-13.438c-4.753-3.208-9.813-5.588-15.173-7.133s-10.843-2.464-16.457-2.764c-5.614-0.307-11.032-0.45-16.261-0.45h-34.583v219.585h34.583c5.229 0 10.647-0.143 16.261-0.45 5.614-0.3 11.098-1.22 16.457-2.764 5.353-1.539 10.413-3.919 15.173-7.133s8.933-7.72 12.531-13.497c3.599-5.79 6.449-13.073 8.548-21.862 2.099-8.783 3.149-19.515 3.149-32.197v-63.774zM452.889 202.712h-35.222v-193.348h-33.292v193.348h-35.352v26.224h103.865v-26.224z" />
<glyph unicode="&#xe618;" d="M282.876 196.805c-2.445 2.654-5.679 4.623-9.709 5.907s-9.089 1.93-15.173 1.93h-5.014v-89.091h5.014c5.829 0 10.752 0.646 14.788 1.93 4.029 1.284 7.283 3.449 9.774 6.494 2.484 3.038 4.284 7.068 5.399 12.089 1.108 5.014 1.669 11.202 1.669 18.576v17.35c0 5.653-0.515 10.536-1.546 14.658-1.030 4.114-2.764 7.498-5.203 10.159zM0 480v-512h512v512h-512zM294.639 9.363l-29.184 82.154h-12.473v-82.154h-32.653v219.578h36.128c4.114 0 8.632-0.169 13.562-0.515 4.923-0.345 9.852-1.18 14.788-2.504 4.923-1.33 9.683-3.325 14.266-5.979 4.584-2.66 8.659-6.298 12.212-10.928s6.403-10.438 8.548-17.422 3.214-15.446 3.214-25.396v-5.529c0-16.711-2.399-30.318-7.198-40.816s-11.866-18.067-21.21-22.69l35.222-87.806h-35.222zM449.159 59.243c0-17.656-4.023-30.683-12.082-39.082s-19.625-12.636-34.713-12.728c-3.43 0-7.133 0.281-11.123 0.834-3.984 0.56-7.974 1.741-11.958 3.541-3.984 1.793-7.798 4.349-11.443 7.648s-6.859 7.648-9.644 13.047c-2.784 5.399-5.014 12.069-6.683 19.99s-2.503 17.376-2.503 28.349v77.772c0 11.051 0.854 20.506 2.569 28.349s3.984 14.442 6.813 19.795c2.829 5.353 6.090 9.623 9.774 12.793s7.498 5.595 11.443 7.263 7.863 2.764 11.762 3.28 7.517 0.769 10.863 0.769c8.743 0 16.046-1.226 21.921-3.665 5.868-2.445 10.589-5.79 14.135-10.028 3.56-4.245 6.090-9.193 7.589-14.846 1.493-5.659 2.25-11.658 2.25-18.002 0-4.714-0.235-9.063-0.704-13.047s-1.18-8.378-2.119-13.177h-27v11.188c0 12.089-1.33 21.125-3.984 27.124-2.66 5.998-6.553 8.998-11.697 8.998-3.084 0-5.784-0.6-8.098-1.793-2.308-1.206-4.238-3.24-5.784-6.11-1.539-2.875-2.719-6.663-3.534-11.377-0.815-4.721-1.226-10.589-1.226-17.611v-100.279c0-6.859 0.32-12.558 0.965-17.096 0.646-4.545 1.688-8.19 3.149-10.928 1.461-2.745 3.365-4.695 5.718-5.849s5.209-1.741 8.555-1.741c2.139 0 4.199 0.495 6.168 1.486 1.969 0.978 3.704 2.53 5.203 4.63 1.5 2.093 2.7 4.753 3.599 7.967s1.349 7.009 1.349 11.377v21.471h30.462v-20.317z" />
<glyph unicode="&#xe619;" d="M0 480v-512h512v512h-512zM338.089 9.363h-33.292v219.578h33.292v-219.578zM454.303 9.363h-78.672v219.578h33.292v-193.355h45.38v-26.224z" />
<glyph unicode="&#xe61a;" d="M0 480v-512h512v512h-512zM255.556 87.267c0-12.681-1.049-23.44-3.149-32.262-2.1-8.829-4.949-16.118-8.548-21.862s-7.779-10.217-12.531-13.438c-4.753-3.208-9.813-5.588-15.172-7.133s-10.843-2.464-16.457-2.764c-5.614-0.307-11.032-0.45-16.261-0.45h-34.583v219.585h34.583c5.229 0 10.648-0.143 16.261-0.45 5.614-0.3 11.097-1.22 16.457-2.764 5.353-1.539 10.412-3.919 15.173-7.133s8.933-7.72 12.531-13.497c3.599-5.79 6.448-13.073 8.548-21.862 2.1-8.783 3.149-19.515 3.149-32.197v-63.774zM421.012 9.363h-33.813l-18.126 105.541-5.659 45.895h-2.575l-5.529-45.895-19.026-105.541h-33.422l-31.623 219.578h31.884l14.781-132.672 1.669-30.983h3.214l3.084 34.837 23.655 128.819h26.615l22.625-128.819 2.569-34.837h3.345l1.546 30.983 13.497 132.672h32.007l-30.716-219.578zM214.734 194.171c-2.275 3.899-5.359 6.618-9.258 8.163-3.899 1.539-8.848 2.308-14.846 2.308h-8.482v-172.014h8.482c5.999 0 10.947 0.776 14.846 2.315s6.983 4.257 9.258 8.163c2.269 3.899 3.834 9.213 4.695 15.942 0.854 6.723 1.285 15.231 1.285 25.514v68.135c0 10.289-0.43 18.791-1.285 25.52-0.861 6.742-2.419 12.049-4.695 15.955z" />
</font>
</defs>
</svg>
