<?xml version="1.0" encoding="utf-8"?>
<!-- Generator: Adobe Illustrator 17.0.0, SVG Export Plug-In . SVG Version: 6.00 Build 0)  -->
<!DOCTYPE svg PUBLIC "-//W3C//DTD SVG 1.1//EN" "http://www.w3.org/Graphics/SVG/1.1/DTD/svg11.dtd">
<svg version="1.1" id="Calque_1" xmlns="http://www.w3.org/2000/svg" xmlns:xlink="http://www.w3.org/1999/xlink" x="0px" y="0px"
	 width="22.472px" height="29.5px" viewBox="60.989 482.5 22.472 29.5" enable-background="new 60.989 482.5 22.472 29.5"
	 xml:space="preserve">
<g id="icomoon-ignore">
</g>
<path fill="#FFFFFF" d="M83.349,509.536l-6.599-9.697c3.772-2.987,4.838-8.393,2.295-12.625c-2.761-4.596-8.747-6.088-13.343-3.328
	c-4.596,2.762-6.088,8.747-3.327,13.343c2.49,4.145,7.603,5.764,11.954,4.017l5.482,10.416c0.17,0.323,0.565,0.433,0.877,0.246
	l2.465-1.482C83.467,510.238,83.555,509.838,83.349,509.536z M74.114,497.885c-3.123,1.876-7.191,0.862-9.067-2.262
	c-1.876-3.123-0.861-7.19,2.262-9.067c3.122-1.877,7.19-0.862,9.066,2.261C78.25,491.941,77.236,496.01,74.114,497.885z"/>
</svg>
